<?xml version="1.0" encoding="UTF-8"?>
<svg version="1.1" xmlns="http://www.w3.org/2000/svg" width="400" height="400">
<path d="M0 0 C132 0 264 0 400 0 C400 132 400 264 400 400 C268 400 136 400 0 400 C0 268 0 136 0 0 Z " fill="#1F3F37" transform="translate(0,0)"/>
<path d="M0 0 C0.66 0 1.32 0 2 0 C21.85914883 38.32557813 37.80140836 86.71756609 26 130 C25.70198486 131.09876465 25.70198486 131.09876465 25.39794922 132.21972656 C22.88896835 141.26709277 19.95787352 150.16287709 16.92456055 159.04589844 C10.46071436 177.11473511 10.46071436 177.11473511 8 196 C12.82743315 188.17350756 16.85277199 180.30347387 20.375 171.8125 C29.19049914 150.69457526 39.87590879 131.37710834 56 115 C56.53713623 114.4416748 57.07427246 113.88334961 57.62768555 113.30810547 C61.64020765 109.19139858 65.82888195 105.55776141 70.4375 102.125 C71.12489258 101.61179199 71.81228516 101.09858398 72.52050781 100.56982422 C79.64791029 95.35959253 87.17995056 91.07216291 95 87 C96.09570312 86.42378906 97.19140625 85.84757812 98.3203125 85.25390625 C114.41645885 77 114.41645885 77 120 77 C120.51043909 84.45605673 118.66515965 90.77596106 116.5 97.875 C115.95533081 99.67312134 115.95533081 99.67312134 115.3996582 101.50756836 C108.55886776 123.52252952 98.50719822 143.65978211 82 160 C81.20843506 160.83422485 81.20843506 160.83422485 80.40087891 161.68530273 C76.24698217 166.00830136 71.8943851 169.424168 66.875 172.6875 C66.10365723 173.19587402 65.33231445 173.70424805 64.53759766 174.22802734 C57.75526738 178.63620325 50.76958962 182.65382657 43.72094727 186.61743164 C38.00604647 189.83362569 32.37340164 193.14895742 26.8125 196.625 C26.14718262 197.0389502 25.48186523 197.45290039 24.79638672 197.87939453 C22.30960382 199.44724942 20.08568403 200.91431597 18 203 C18.78310547 202.70867187 19.56621094 202.41734375 20.37304688 202.1171875 C86.47505591 177.57493546 86.47505591 177.57493546 114.125 177.6875 C115.13898865 177.68873871 115.13898865 177.68873871 116.17346191 177.69000244 C143.14857554 177.76571702 143.14857554 177.76571702 151 183 C128.13682678 203.59251561 100.76470778 218.32944544 69.5 217.4375 C67.83597086 217.41587868 66.17190391 217.39699187 64.5078125 217.38085938 C57.40713514 217.28935785 50.3962309 217.03787187 43.33886719 216.21166992 C38.52972324 215.77643737 33.69934039 215.89760406 28.875 215.9375 C27.823125 215.94201172 26.77125 215.94652344 25.6875 215.95117188 C23.12493779 215.96281989 20.56250123 215.97917447 18 216 C21.19408323 219.67950471 24.27514903 221.18775095 28.78515625 222.953125 C30.13486244 223.49585304 31.4844685 224.03883014 32.83398438 224.58203125 C34.93573051 225.41396736 37.03925091 226.24093583 39.14526367 227.06201172 C54.17582195 232.95474449 65.49856871 239.49980596 72.27734375 254.90234375 C74.2188952 259.93932242 75.32545816 264.63011792 76 270 C75.07960938 269.55269531 74.15921875 269.10539062 73.2109375 268.64453125 C58.65007369 261.65221237 43.90997943 255.80076765 27.66015625 254.55078125 C26.7256665 254.47754639 25.79117676 254.40431152 24.82836914 254.32885742 C22.98138964 254.1957346 21.13268834 254.08424126 19.28295898 253.99731445 C13.19775434 253.58232307 10.15953555 252.55723409 6 248 C4.7578125 245.54296875 4.7578125 245.54296875 4.125 243.1875 C3.78855469 242.00220703 3.78855469 242.00220703 3.4453125 240.79296875 C3.29835937 240.20128906 3.15140625 239.60960937 3 239 C1.35 239.33 -0.3 239.66 -2 240 C-2.14695313 240.60328125 -2.29390625 241.2065625 -2.4453125 241.828125 C-2.66960937 242.62734375 -2.89390625 243.4265625 -3.125 244.25 C-3.33382812 245.03890625 -3.54265625 245.8278125 -3.7578125 246.640625 C-5.60249487 250.14436133 -7.45039278 251.23889388 -11 253 C-14.50862493 253.61226322 -18.0079318 253.73077558 -21.5625 253.875 C-39.86556924 255.0734326 -55.78972928 260.64562923 -72 269 C-72.66 269.33 -73.32 269.66 -74 270 C-72.27626168 259.34003932 -69.279609 250.15448265 -62 242 C-61.42121094 241.34257812 -60.84242188 240.68515625 -60.24609375 240.0078125 C-52.06292388 231.77660054 -40.69177144 228.27528515 -30.125 224.046875 C-29.34833984 223.73371338 -28.57167969 223.42055176 -27.77148438 223.09790039 C-26.28742941 222.50309805 -24.79924257 221.91847591 -23.30664062 221.34545898 C-19.73580577 219.9306405 -18.18736134 219.281042 -16 216 C-19.83331699 215.97070019 -23.66660471 215.95310103 -27.5 215.9375 C-28.57765625 215.92912109 -29.6553125 215.92074219 -30.765625 215.91210938 C-31.82265625 215.90888672 -32.8796875 215.90566406 -33.96875 215.90234375 C-34.93232422 215.89710693 -35.89589844 215.89187012 -36.88867188 215.88647461 C-39.94337951 215.99793405 -42.91329416 216.36219038 -45.94125366 216.76524353 C-49.25742228 217.14338241 -52.57642966 217.20191873 -55.91015625 217.23828125 C-56.64012314 217.246353 -57.37009003 217.25442474 -58.12217712 217.26274109 C-59.65914616 217.27647491 -61.19614432 217.28724412 -62.7331543 217.29516602 C-64.27361274 217.30662944 -65.81403325 217.32699105 -67.35424805 217.35668945 C-82.86783013 217.65448368 -95.83358119 214.57223161 -110 208 C-110.89041992 207.5985376 -110.89041992 207.5985376 -111.79882812 207.18896484 C-125.03299414 201.17929612 -136.7502284 193.17457102 -148 184 C-147.67 183.01 -147.34 182.02 -147 181 C-105.78326408 172.15656241 -69.34704273 184.67549006 -30.69726562 197.75146484 C-25.47005289 199.51665013 -20.23574305 201.2603065 -15 203 C-23.92093386 197.38633918 -33.05306354 192.36220051 -42.4375 187.5625 C-78.10859872 169.18398528 -99.92526276 144.96942503 -112.3125 106.3125 C-115.23926999 96.84336731 -118.12032168 86.96981235 -118 77 C-110.47969402 78.99356923 -103.61743771 81.79595487 -96.625 85.1875 C-95.61058838 85.67798828 -94.59617676 86.16847656 -93.55102539 86.67382812 C-86.23746076 90.26921856 -79.51245583 94.07391162 -73 99 C-72.46149414 99.39622559 -71.92298828 99.79245117 -71.36816406 100.20068359 C-45.08039341 119.5873597 -30.48671085 144.05435652 -17.64135742 173.63500977 C-14.43606276 180.97519961 -10.97536257 188.0448918 -7 195 C-6.67 194.67 -6.34 194.34 -6 194 C-6.73163238 184.53148136 -9.40730792 175.61351532 -12.3125 166.625 C-12.72108392 165.33594277 -13.12887344 164.04663348 -13.53588867 162.75708008 C-15.55726307 156.37611657 -17.64928456 150.02166521 -19.8125 143.6875 C-35.40563959 97.66345822 -24.32641726 49.00181928 -3.69921875 6.34375 C-2 3 -2 3 0 0 Z " fill="#ECB857" transform="translate(199,66)"/>
<path d="M0 0 C2 1 2 1 3 3 C-1.95 4.485 -1.95 4.485 -7 6 C-4.74259377 3.66475218 -2.7194239 1.81294927 0 0 Z " fill="#3D503B" transform="translate(222,264)"/>
</svg>
