<svg width="354" height="320" viewBox="0 0 354 320" fill="none" xmlns="http://www.w3.org/2000/svg">
<path d="M177 0C177.03 0.0499789 209.778 54.3012 209.778 121.217C209.778 166.336 190.111 186.74 183.555 235.882C200.622 214.023 206.268 178.938 232.722 147.426C267.134 106.437 317.853 91.7583 317.944 91.7319C317.943 91.747 313.049 142.444 278.611 183.464C256.318 210.018 215.223 224.9 193.389 242.434C214.305 235.467 241.681 224.359 272.055 216.225C314.107 204.964 354 216.225 354 216.225C353.989 216.237 327.209 244.28 285.167 255.539C259.034 262.538 218.478 252.171 194.868 256.323C198.262 259.479 202.273 262.021 206.693 263.754L233.161 274.425C247.396 279.983 258.073 292.211 262.299 306.883L265.413 320L259.407 316.665C239.612 305.772 217.147 299.992 194.682 299.992C187.342 299.992 181.337 293.989 181.337 286.652C181.337 284.207 179.335 282.206 176.888 282.206C174.442 282.206 172.44 284.207 172.44 286.652C172.44 293.989 166.434 299.992 159.094 299.992C136.407 299.992 114.165 305.772 94.3697 316.665L88.3642 320L91.9228 306.883C95.9264 292.211 106.825 279.983 121.06 274.425L147.529 263.754C151.864 262.021 155.857 259.476 159.261 256.318C135.898 251.865 98.9304 262.224 72.111 255.539C29.9065 245.021 0.0557083 216.279 0 216.225C0 216.225 36.4226 205.698 78.6665 216.225C108.962 223.774 139.721 235.524 160.611 242.434C138.982 225.018 97.621 213.224 75.3889 186.74C40.946 145.714 36.0555 91.7319 36.0555 91.7319C36.0555 91.7319 86.8349 106.4 121.278 147.426C148.003 179.257 152.924 214.015 170.445 235.882C163.959 186.67 144.222 167.135 144.222 121.217C144.222 54.2704 177 0 177 0Z" fill="#EEBA58"/>
</svg>
