<svg width="500" height="452" viewBox="0 0 500 452" fill="none" xmlns="http://www.w3.org/2000/svg">
<path d="M250 0C250.043 0.0705951 296.296 76.7005 296.296 171.219C296.296 234.95 268.518 263.77 259.259 333.183C283.364 302.308 291.34 252.75 328.704 208.24C377.308 150.343 448.945 129.609 449.074 129.571C449.072 129.593 442.159 201.202 393.518 259.143C362.031 296.65 303.988 317.672 273.148 342.439C302.691 332.597 341.358 316.907 384.259 305.418C443.654 289.512 500 305.418 500 305.418C499.984 305.435 462.16 345.045 402.778 360.948C365.867 370.835 308.584 356.191 275.237 362.056C280.031 366.514 285.696 370.105 291.939 372.553L329.324 387.626C349.43 395.476 364.509 412.747 370.478 433.473L374.877 452L366.394 447.29C338.434 431.903 306.705 423.738 274.975 423.738C264.608 423.738 256.125 415.259 256.125 404.897C256.125 401.443 253.298 398.616 249.842 398.616C246.387 398.616 243.559 401.443 243.559 404.897C243.559 415.259 235.077 423.738 224.71 423.738C192.666 423.738 161.25 431.903 133.29 447.29L124.808 452L129.834 433.473C135.489 412.748 150.883 395.476 170.989 387.626L208.374 372.553C214.498 370.104 220.138 366.51 224.946 362.05C191.946 355.759 139.732 370.392 101.852 360.948C42.2409 346.092 0.078684 305.494 0 305.418C0 305.418 51.4443 290.548 111.111 305.418C153.901 316.08 197.346 332.678 226.852 342.439C196.303 317.839 137.883 301.179 106.482 263.77C57.8334 205.821 50.9259 129.571 50.9259 129.571C50.9259 129.571 122.648 150.29 171.296 208.24C209.043 253.201 215.994 302.296 240.741 333.183C231.58 263.671 203.703 236.079 203.703 171.219C203.703 76.6569 250 0 250 0Z" fill="#1F3F37"/>
</svg>
